#!OML:ASF E:/inclinewalkrobotboard/Project1/Captureday1/Session1/subject1.ASF
:FULLY-SPECIFIED
:DEGREES
238
root 0 0 0 45.00514993870187 -47.16258646401947 -18.508995529672266
lowerback -6.487522611579454 3.604422540536042 -0.48362773508284257
upperback -13.442401140529663 4.310832875151522 -0.08309993316491804
thorax -11.044572261940688 2.111950281502017 0.6775805907138641
lowerneck -11.438098302586866 6.768029596162094 4.441082268047519
upperneck 18.170171886757323 7.239096897918607 7.2842429704294815
head 7.633016226832087 4.231199959313415 2.1629535006159286
rclavicle 9.18978139324541E-16 -1.8315932998636293E-15
rhumerus 7.831646480420613 -22.476975510975134 -48.48137371540232
rradius 27.937401892670444
rwrist 21.232294131680643
rhand 0.8057651744553826 7.396524063081503
rfingers 7.1250200000000286
rthumb 26.425758301945784 -19.660749459540206
lclavicle 1.456258138388364E-15 -9.154564307694042E-16
lhumerus -10.569864519276685 3.860393836558399 51.439744434093626
lradius 35.63394469928367
lwrist -7.754698316936491
lhand -1.7766452981986411 23.320588477351688
lfingers 7.125019999999975
lthumb 23.494943832773302 50.494676162174514
rfemur 58.71655602280946 -81.6924803346474 -55.88428446113636
rtibia 40.21505155840906
rfoot -18.416901576362786 -17.946626420851274
rtoes 21.613122944780915
lfemur -44.701993060579326 8.20897675055352 -27.117486088738406
ltibia 44.042310259746046
lfoot -22.75888458339597 14.890709842207915
ltoes 10.86171372268863
239
root 0 0 0 45.00523514016663 -47.163005780056466 -18.50908008233766
lowerback -6.487438085578314 3.6044601148124924 -0.48361559062495596
upperback -13.442409334632812 4.310868799239975 -0.08314924992849182
thorax -11.044630776340282 2.1119651355856006 0.6775254660989598
lowerneck -11.43814272468247 6.76813138569067 4.441146525943516
upperneck 18.170025451561116 7.239219038575085 7.284289170907213
head 7.632967434911359 4.231265169284113 2.1629696613164477
rclavicle 9.192071441669084E-16 -1.8317251007150878E-15
rhumerus 7.828996709643075 -22.477107171551513 -48.48065890631655
rradius 27.93793421523092
rwrist 21.230748707663732
rhand 0.8051390135733563 7.397235917011234
rfingers 7.1250200000000286
rthumb 26.425171974093473 -19.66014067878446
lclavicle 1.4567616699824442E-15 -9.153283231940074E-16
lhumerus -10.570596165538273 3.859345658386238 51.4420659006408
lradius 35.634738676933175
lwrist -7.7531021922430305
lhand -1.7766279674954326 23.32029211876073
lfingers 7.125019999999975
lthumb 23.494855641815946 50.49433347590494
rfemur 58.71539497381961 -81.691156900176 -55.88295952660533
rtibia 40.215056911197166
rfoot -18.416790383876535 -17.946466522509496
rtoes 21.612947213351383
lfemur -44.701576605255305 8.208846306124325 -27.117373950701435
ltibia 44.04218310271114
lfoot -22.7588133202369 14.890514268012923
ltoes 10.86158131894442
240
root 0 0 0 45.00528048515987 -47.163305509860606 -18.50913831215636
lowerback -6.487366699257248 3.6044881053313365 -0.4836049790360407
upperback -13.442408191463574 4.310895434857953 -0.08318641254205383
thorax -11.0446714900217 2.1119759540609557 0.6774829239693292
lowerneck -11.438180122557155 6.768204023593058 4.4411928170462875
upperneck 18.16991622499482 7.2393061819884625 7.284320227177414
head 7.632931616258325 4.231311669481297 2.162980672176022
rclavicle 9.194338969640462E-16 -1.831857074865351E-15
rhumerus 7.826439766567773 -22.477241921460887 -48.47991320539219
rradius 27.93845322135269
rwrist 21.229252648780317
rhand 0.8045573850901793 7.397906951346425
rfingers 7.1250200000000286
rthumb 26.424628445979987 -19.65956574298022
lclavicle 1.4572369649354342E-15 -9.152167976297592E-16
lhumerus -10.571236158753736 3.858368036979081 51.44419570408144
lradius 35.63550046358367
lwrist -7.75161870797826
lhand -1.7765728597505426 23.32001099687549
lfingers 7.125019999999975
lthumb 23.494813059135566 50.49400268676799
rfemur 58.71441585385341 -81.6900366047303 -55.88183599948833
rtibia 40.2150612519086
rfoot -18.416693256647477 -17.946330875768393
rtoes 21.612794238554407
lfemur -44.701245821471645 8.208744091682906 -27.117282428466424
ltibia 44.04208087048271
lfoot -22.75875797508734 14.890359015993901
ltoes 10.86147844341925
241
root 0 0 0 45.00529313057291 -47.16350804184425 -18.509174826236322
lowerback -6.487305861576938 3.6045080099361795 -0.483595983441866
upperback -13.442400152206627 4.310914098181472 -0.08321352060817988
thorax -11.04469844410044 2.111983341554391 0.67745101625733
lowerneck -11.43821121820496 6.768253250726841 4.441224416819225
upperneck 18.16983629573923 7.239365280187624 7.284339507759919
head 7.632905883973908 4.2313431623194715 2.1629876727092423
rclavicle 9.19657065369053E-16 -1.831988249352662E-15
rhumerus 7.823976963938337 -22.47737804365786 -48.47914817033139
rradius 27.93895741916548
rwrist 21.227807781177912
rhand 0.8040162909982929 7.398539815301488
rfingers 7.1250200000000286
rthumb 26.424123783783017 -19.65902259376373
lclavicle 1.4576868689620764E-15 -9.151192646426045E-16
lhumerus -10.571797987185938 3.8574526967136884 51.44615866198699
lradius 35.63623228461796
lwrist -7.750234291401242
lhand -1.776487085227867 23.319743726386868
lfingers 7.125019999999975
lthumb 23.49480799070856 50.49368324303523
rfemur 58.713579546645605 -81.6890763061329 -55.880871441520085
rtibia 40.215064827693006
rfoot -18.416607929994136 -17.946214359929904
rtoes 21.612659855617657
lfemur -44.70098382038789 8.208664452466817 -27.117207795138366
ltibia 44.041998762207406
lfoot -22.758714748895127 14.890236076780033
ltoes 10.861398891808001
242
root 0 0 0 45.00527931514197 -47.163632246812156 -18.509193615353034
lowerback -6.487253506753521 3.604521160973653 -0.48358858894459406
upperback -13.442387147119017 4.310926003507941 -0.08323237461179955
thorax -11.044714868788539 2.111987846192638 0.6774280181738015
lowerneck -11.438236733117298 6.768283832137939 4.441244106038007
upperneck 18.16977927537716 7.239402089185134 7.284349727630548
head 7.632887930847824 4.2313627168496994 2.1629915816456267
rclavicle 9.198755612292225E-16 -1.8321177990449958E-15
rhumerus 7.821609108069893 -22.47751412626042 -48.47837351948631
rradius 27.93944563676767
rwrist 21.226415454397088
rhand 0.8035122208396057 7.3991368758389955
rfingers 7.1250200000000286
rthumb 26.423654532626962 -19.6585093837105
lclavicle 1.4581136392409425E-15 -9.150335464483657E-16
lhumerus -10.572293165355507 3.8565929202175857 51.44797538038178
lradius 35.63693570299936
lwrist -7.748937861778805
lhand -1.7763768986589081 23.31948922356131
lfingers 7.125019999999975
lthumb 23.494833377536573 50.49337481827839
rfemur 58.71285540029767 -81.68824213349404 -55.880032483152
rtibia 40.2150678297049
rfoot -18.416532494462235 -17.946112953303746
rtoes 21.61254069967445
lfemur -44.700776749225234 8.20860276411279 -27.117146914504414
ltibia 44.041932818119406
lfoot -22.75868070974318 14.890138896796069
ltoes 10.861337667850634
243
root 0 0 0 45.00524440889039 -47.16369391254652 -18.5091980996345
lowerback -6.487207992680526 3.6045287286947527 -0.4835827157137945
upperback -13.442370685968463 4.310932249681695 -0.08324450663029781
thorax -11.044723326713122 2.1119899569054175 0.6774124194015305
lowerneck -11.438257363367393 6.768299696320323 4.4412542273046345
upperneck 18.16974003779829 7.23942134283841 7.284353058779299
head 7.63287592580186 4.2313728600125184 2.1629931343185342
rclavicle 9.200885180659065E-16 -1.832245039283408E-15
rhumerus 7.819336420079665 -22.477649022474818 -48.477597330636684
rradius 27.93991700498507
rwrist 21.22507652122351
rhand 0.8030420642743472 7.399700285680518
rfingers 7.1250200000000286
rthumb 26.423217633103413 -19.658024422004466
lclavicle 1.4585190896655887E-15 -9.14957816181354E-16
lhumerus -10.57273148723935 3.855783215319134 51.44966301403154
lradius 35.6376118400688
lwrist -7.74772031774002
lhand -1.7762477313429592 23.31924662606547
lfingers 7.125019999999975
lthumb 23.49488312762702 50.49307722245363
rfemur 58.71221948838867 -81.68750759440744 -55.87929298300133
rtibia 40.2150704046576
rfoot -18.416465352408327 -17.94602350855201
rtoes 21.612434061335417
lfemur -44.70061330805667 8.208555264561177 -27.117097169186845
ltibia 44.041879791686135
lfoot -22.758653604872062 14.890062142439698
ltoes 10.861290765515262
244
root 0 0 0 45.00519298404955 -47.16370615878738 -18.50919118296426
lowerback -6.487168017472537 3.6045317298683637 -0.48357824386634485
upperback -13.442351936770507 4.310933815518142 -0.08325121127289314
thorax -11.044725836174777 2.1119901039690054 0.6774029101475236
lowerneck -11.438273763028036 6.768304062106192 4.441256740369626
upperneck 18.169714494164328 7.239426910428078 7.284351226550955
head 7.63286842532805 4.231375659566681 2.1629929152103324
rclavicle 9.202952662390518E-16 -1.832369414706869E-15
rhumerus 7.8171585290472585 -22.477781813888328 -48.47682623587064
rradius 27.940370929660986
rwrist 21.223791356938452
rhand 0.8026030458872615 7.400232028393095
rfingers 7.1250200000000286
rthumb 26.42281035851786 -19.65756613928658
lclavicle 1.4589047013099943E-15 -9.14890544884336E-16
lhumerus -10.573121256699787 3.8550190530456314 51.45123589075544
lradius 35.638261534155305
lwrist -7.746574130214617
lhand -1.7761042449620472 23.31901523299464
lfingers 7.125019999999975
lthumb 23.494952033403962 50.49279033978218
rfemur 58.71165321652211 -81.68685205534159 -55.87863254737154
rtibia 40.21507266413122
rfoot -18.41640517583417 -17.945943572505477
rtoes 21.61233776613425
lfemur -44.700484331031156 8.208518909728703 -27.117056391871508
ltibia 44.041837037041375
lfoot -22.758631711852864 14.890001496831616
ltoes 10.861254987655478
